<svg xmlns="http://www.w3.org/2000/svg" version="1.1" xmlnsXlink="http://www.w3.org/1999/xlink" width="1000" height="214" viewBox="0 0 1000 214"><g transform="matrix(1,0,0,1,-0.6060385449047203,0.45597293035680764)"><svg viewBox="0 0 396 85" preserveAspectRatio="xMidYMid meet" height="214" width="1000" xmlns="http://www.w3.org/2000/svg" xmlnsXlink="http://www.w3.org/1999/xlink"><g id="tight-bounds" transform="matrix(1,0,0,1,0.2399912637822581,-0.18111074336601973)"><svg viewBox="0 0 395.52 85.36222148673204" height="85.36222148673204" width="395.52"><g><svg viewBox="0 0 597.9852295866209 129.05882790697675" height="85.36222148673204" width="395.52"><g><rect width="5.307174705533024" height="129.05882790697675" x="183.26492737969258" y="0" fill="currentColor" opacity="1" stroke-width="0" stroke="transparent" fill-opacity="1" class="rect-o-0" data-fill-palette-color="primary" rx="1%" id="o-0" data-palette-color="currentColor"></rect></g><g transform="matrix(1,0,0,1,202.46522958662095,0.3210418604651153)"><svg viewBox="0 0 395.52 128.41674418604651" height="128.41674418604651" width="395.52"><g><svg viewBox="0 0 395.52 128.41674418604651" height="128.41674418604651" width="395.52"><g><svg viewBox="0 0 395.52 128.41674418604651" height="128.41674418604651" width="395.52"><g transform="matrix(1,0,0,1,0,0)"><svg width="395.52" viewBox="0.6000003814697266 -32.5 222.74998474121094 68.9000015258789" height="128.41674418604651" data-palette-color="currentColor"><svg></svg><svg></svg><g class="undefined-text-0" data-fill-palette-color="primary" id="text-0"><path xmlns="http://www.w3.org/2000/svg" d="M13.7-32.45c2.533 0 5.067 0.533 7.6 1.6v0l-0.85 4.7-0.8 0.3c-1.067-0.767-2.167-1.367-3.3-1.8-1.133-0.433-2.217-0.65-3.25-0.65v0c-1.633 0-2.933 0.45-3.9 1.35-0.967 0.9-1.45 1.95-1.45 3.15v0c0 1.167 0.483 2.123 1.45 2.87 0.967 0.753 2.483 1.613 4.55 2.58v0c1.8 0.867 3.26 1.65 4.38 2.35 1.113 0.7 2.07 1.623 2.87 2.77 0.8 1.153 1.2 2.53 1.2 4.13v0c0 1.733-0.473 3.323-1.42 4.77-0.953 1.453-2.287 2.603-4 3.45-1.72 0.853-3.68 1.28-5.88 1.28v0c-1.467 0-2.983-0.183-4.55-0.55-1.567-0.367-3.05-0.9-4.45-1.6v0l0.65-5.1 0.65-0.3c1.233 1.167 2.593 2.04 4.08 2.62 1.48 0.587 2.853 0.88 4.12 0.88v0c1.733 0 3.117-0.46 4.15-1.38 1.033-0.913 1.55-2.003 1.55-3.27v0c0-1.267-0.5-2.293-1.5-3.08-1-0.78-2.533-1.653-4.6-2.62v0c-1.767-0.833-3.2-1.593-4.3-2.28-1.1-0.68-2.04-1.587-2.82-2.72-0.787-1.133-1.18-2.5-1.18-4.1v0c0-1.733 0.467-3.317 1.4-4.75 0.933-1.433 2.233-2.56 3.9-3.38 1.667-0.813 3.567-1.22 5.7-1.22zM57.95-32.1l3.05 32.1h-4.6l-0.65-9.75-1.5-14.5h-0.35l-8.25 20.7h-4.1l-7.65-20.7h-0.45l-1.5 14.05-0.8 10.2h-4.35l3.35-32.1h5.9l1.5 4.8 6.15 17.05h0.4l6.5-17.2 1.5-4.65zM81.8-32.1l10.35 32.1h-5.3l-0.75-3.6-1.4-4.45-6.8-0.15-6.15 0.15-1.5 4.2-0.8 3.85h-5.15l11.45-32.1zM78.25-12.15l5.15-0.1-4.6-14.8h-0.35l-5.25 14.8zM112.1-12.85c2.267 3.633 4.95 7.517 8.05 11.65v0l-0.05 0.6c-1.6 0.533-3.25 0.883-4.95 1.05v0l-0.6-0.4c-2.767-4.533-5-8.367-6.7-11.5v0h-5.45v1.35l0.25 10.1h-5.25l0.35-9.65-0.35-22.45 10.9-0.05c3.233 0 5.733 0.807 7.5 2.42 1.767 1.62 2.65 3.93 2.65 6.93v0c0 2.133-0.56 4.057-1.68 5.77-1.113 1.72-2.67 3.113-4.67 4.18zM102.65-27.95l-0.15 12.3 5.5 0.15c3.367-1.033 5.05-3.333 5.05-6.9v0c0-1.867-0.51-3.267-1.53-4.2-1.013-0.933-2.553-1.433-4.62-1.5v0zM143.55-32.1l0.3 0.45-0.3 3.9-5.8-0.3h-2.7l-0.25 17.95 0.25 10.1h-5.2l0.3-9.65-0.25-18.4h-2.7l-5.9 0.3-0.35-0.45 0.4-3.9zM165.4-4.3l0.35 0.45-0.4 3.85h-16.5l0.35-9.65-0.35-22.45h5.3l-0.3 22 0.1 5.8zM180.6-32.5c4.433 0 7.85 1.367 10.25 4.1 2.4 2.733 3.6 6.633 3.6 11.7v0c0 5.467-1.283 9.69-3.85 12.67-2.567 2.987-6.217 4.48-10.95 4.48v0c-4.4 0-7.793-1.41-10.18-4.23-2.38-2.813-3.57-6.803-3.57-11.97v0c0-5.367 1.273-9.5 3.82-12.4 2.553-2.9 6.18-4.35 10.88-4.35zM180.2-28.3c-3.033 0-5.293 0.973-6.78 2.92-1.48 1.953-2.22 4.963-2.22 9.03v0c0 4.433 0.727 7.673 2.18 9.72 1.447 2.053 3.687 3.08 6.72 3.08v0c3.067 0 5.333-0.983 6.8-2.95 1.467-1.967 2.2-5.033 2.2-9.2v0c0-4.367-0.727-7.56-2.18-9.58-1.447-2.013-3.687-3.02-6.72-3.02zM213.95-32.45c3.367 0 6.5 0.717 9.4 2.15v0l-1.05 4.8-0.55 0.05c-1.633-0.967-3.117-1.66-4.45-2.08-1.333-0.413-2.733-0.62-4.2-0.62v0c-3.333 0-5.817 1.007-7.45 3.02-1.633 2.02-2.45 5.197-2.45 9.53v0c0 4.133 0.767 7.123 2.3 8.97 1.533 1.853 3.967 2.78 7.3 2.78v0c0.833 0 1.657-0.077 2.47-0.23 0.82-0.147 1.847-0.403 3.08-0.77v0l0.15-3.25-0.15-4.95 4.85-0.35-0.1 4.5 0.15 7.35c-4.133 1.3-7.717 1.95-10.75 1.95v0c-4.9 0-8.567-1.36-11-4.08-2.433-2.713-3.65-6.603-3.65-11.67v0c0-5.533 1.39-9.767 4.17-12.7 2.787-2.933 6.763-4.4 11.93-4.4z" fill="currentColor" fill-rule="nonzero" stroke="none" stroke-width="1" stroke-linecap="butt" stroke-linejoin="miter" stroke-miterlimit="10" stroke-dasharray="" stroke-dashoffset="0" font-family="none" font-weight="none" font-size="none" text-anchor="none" style="mix-blend-mode: normal" data-fill-palette-color="primary" opacity="1"></path><path xmlns="http://www.w3.org/2000/svg" d="M28.45 3.85l-11.35 32.1h-6.1l-10.4-32.1h5.3l0.75 3.65 7.35 23.45h0.35l8.15-23.2 0.8-3.9zM38.2 3.85l-0.3 22 0.25 10.1h-5.25l0.35-9.65-0.35-22.45zM58.1 31.8l7.75-0.25 0.3 0.45-0.35 3.95h-18.95l0.35-9.65-0.35-22.45h19.05l0.3 0.45-0.4 3.95-7.6-0.2-6.1 0.05-0.15 9.35 5.8 0.1 5.3-0.15 0.35 0.4-0.4 3.95-5.65-0.15-5.45 0.1-0.05 4.15 0.15 5.9zM111.7 3.85l-11.1 32.1h-5.4l-5.65-17.25h-0.35l-5.85 17.25h-5.45l-9.7-32.1h5.1l0.55 3.45 6.9 23.15h0.4l6.3-18.6-2.55-8h5.25l0.8 3.95 7 22.65h0.4l7.75-22.85 0.8-3.75zM127.55 31.8l7.75-0.25 0.3 0.45-0.35 3.95h-18.95l0.35-9.65-0.35-22.45h19.05l0.3 0.45-0.4 3.95-7.6-0.2-6.1 0.05-0.15 9.35 5.8 0.1 5.3-0.15 0.35 0.4-0.4 3.95-5.65-0.15-5.45 0.1-0.05 4.15 0.15 5.9zM155.65 23.1c2.267 3.633 4.95 7.517 8.05 11.65v0l-0.05 0.6c-1.6 0.533-3.25 0.883-4.95 1.05v0l-0.6-0.4c-2.767-4.533-5-8.367-6.7-11.5v0h-5.45v1.35l0.25 10.1h-5.25l0.35-9.65-0.35-22.45 10.9-0.05c3.233 0 5.733 0.807 7.5 2.42 1.767 1.62 2.65 3.93 2.65 6.93v0c0 2.133-0.557 4.057-1.67 5.77-1.12 1.72-2.68 3.113-4.68 4.18zM146.2 8l-0.15 12.3 5.5 0.15c3.367-1.033 5.05-3.333 5.05-6.9v0c0-1.867-0.507-3.267-1.52-4.2-1.02-0.933-2.563-1.433-4.63-1.5v0z" fill="currentColor" fill-rule="nonzero" stroke="none" stroke-width="1" stroke-linecap="butt" stroke-linejoin="miter" stroke-miterlimit="10" stroke-dasharray="" stroke-dashoffset="0" font-family="none" font-weight="none" font-size="none" text-anchor="none" style="mix-blend-mode: normal" data-fill-palette-color="primary" opacity="1"></path></g></svg></g></svg></g></svg></g></svg></g><g transform="matrix(1,0,0,1,0,0.3210418604651153)"><svg viewBox="0 0 169.37179987829722 128.41674418604651" height="128.41674418604651" width="169.37179987829722"><g><svg xmlns="http://www.w3.org/2000/svg" xmlnsXlink="http://www.w3.org/1999/xlink" xml:space="preserve" version="1.1" style="shape-rendering:geometricPrecision;text-rendering:geometricPrecision;image-rendering:optimizeQuality;" viewBox="0 0 3478 2637" x="0" y="0" fill-rule="evenodd" clip-rule="evenodd" height="128.41674418604651" width="169.37179987829722" class="icon-icon-0" data-fill-palette-color="accent" id="icon-0"><g fill="currentColor" data-fill-palette-color="accent"><path class="" d="M3228 204l-2977 0c-13 0-25 5-33 13l-1 1c-8 8-13 20-13 32l0 1764c0 13 5 25 13 33l1 0c8 9 20 14 33 14l2977 0c13 0 24-5 33-14l0 0c8-8 13-20 13-33l0-1764c0-12-5-24-13-32l0-1c-9-8-20-13-33-13z m-2194 2433c-57 0-102-46-102-102 0-57 45-102 102-102l1411 0c56 0 102 45 102 102 0 56-46 102-102 102l-1411 0z m-61-1326l482-446c32-30 82-28 113 2l257 258c33-16 70-25 110-25 43 0 84 11 119 30l344-314c-16-32-24-69-24-107 0-139 112-251 250-251 138 0 250 112 250 251 0 138-112 250-250 250-40 0-78-10-112-26l-348 317c14 31 21 65 21 100 0 138-112 250-250 250-139 0-251-112-251-250 0-40 10-77 26-110l-202-202-425 392c14 31 22 65 22 101 0 138-112 250-250 250-139 0-251-112-251-250 0-138 112-250 251-250 42 0 83 11 118 30z m-722-1311l2977 0c68 0 131 28 177 73l0 1c45 45 73 108 73 176l0 1764c0 69-28 131-73 177l0 0c-46 46-109 74-177 74l-2977 0c-69 0-132-28-177-74l0 0c-46-46-74-108-74-177l0-1764c0-68 28-131 74-176l0-1c45-45 108-73 177-73z" fill="currentColor" fill-rule="nonzero" data-fill-palette-color="accent"></path></g></svg></g></svg></g></svg></g><defs></defs></svg><rect width="395.52" height="85.36222148673204" fill="none" stroke="none" visibility="hidden"></rect></g></svg></g></svg>